<svg data-v-423bf9ae="" xmlns="http://www.w3.org/2000/svg" viewBox="0 0 510 90" class="iconLeft"><!----><!----><!----><g data-v-423bf9ae="" id="5044f6f3-1844-471d-a7f5-6fef9f71610a" fill="white" transform="matrix(5.714285714285714,0,0,5.714285714285714,109.24397518805094,-3.057143109185354)"><path d="M4.33 13.66L4.33 13.66Q3.22 13.66 2.19 13.32L2.19 13.32L2.19 13.32Q1.16 12.98 0.57 12.43L0.57 12.43L1.09 11.34L1.09 11.34Q1.65 11.84 2.53 12.16L2.53 12.16L2.53 12.16Q3.40 12.47 4.33 12.47L4.33 12.47L4.33 12.47Q5.54 12.47 6.15 12.06L6.15 12.06L6.15 12.06Q6.75 11.65 6.75 10.96L6.75 10.96L6.75 10.96Q6.75 10.46 6.42 10.14L6.42 10.14L6.42 10.14Q6.09 9.83 5.61 9.66L5.61 9.66L5.61 9.66Q5.12 9.49 4.24 9.28L4.24 9.28L4.24 9.28Q3.14 9.02 2.46 8.75L2.46 8.75L2.46 8.75Q1.78 8.48 1.29 7.93L1.29 7.93L1.29 7.93Q0.81 7.38 0.81 6.44L0.81 6.44L0.81 6.44Q0.81 5.66 1.23 5.03L1.23 5.03L1.23 5.03Q1.64 4.40 2.48 4.02L2.48 4.02L2.48 4.02Q3.32 3.64 4.56 3.64L4.56 3.64L4.56 3.64Q5.43 3.64 6.27 3.86L6.27 3.86L6.27 3.86Q7.11 4.09 7.71 4.51L7.71 4.51L7.25 5.63L7.25 5.63Q6.64 5.24 5.94 5.03L5.94 5.03L5.94 5.03Q5.24 4.83 4.56 4.83L4.56 4.83L4.56 4.83Q3.37 4.83 2.78 5.26L2.78 5.26L2.78 5.26Q2.18 5.70 2.18 6.38L2.18 6.38L2.18 6.38Q2.18 6.89 2.52 7.20L2.52 7.20L2.52 7.20Q2.86 7.52 3.35 7.69L3.35 7.69L3.35 7.69Q3.85 7.87 4.70 8.06L4.70 8.06L4.70 8.06Q5.81 8.33 6.48 8.60L6.48 8.60L6.48 8.60Q7.15 8.86 7.64 9.41L7.64 9.41L7.64 9.41Q8.12 9.95 8.12 10.88L8.12 10.88L8.12 10.88Q8.12 11.65 7.70 12.29L7.70 12.29L7.70 12.29Q7.28 12.92 6.43 13.29L6.43 13.29L6.43 13.29Q5.57 13.66 4.33 13.66L4.33 13.66ZM22.68 3.75L24.01 3.75L20.73 13.55L19.26 13.55L16.59 5.73L13.92 13.55L12.42 13.55L9.14 3.75L10.58 3.75L13.23 11.72L15.99 3.75L17.28 3.75L19.98 11.76L22.68 3.75ZM30.35 13.66L30.35 13.66Q28.87 13.66 27.68 13.01L27.68 13.01L27.68 13.01Q26.49 12.36 25.81 11.21L25.81 11.21L25.81 11.21Q25.13 10.07 25.13 8.65L25.13 8.65L25.13 8.65Q25.13 7.24 25.81 6.09L25.81 6.09L25.81 6.09Q26.49 4.94 27.68 4.29L27.68 4.29L27.68 4.29Q28.87 3.64 30.35 3.64L30.35 3.64L30.35 3.64Q31.82 3.64 33.01 4.29L33.01 4.29L33.01 4.29Q34.20 4.94 34.87 6.08L34.87 6.08L34.87 6.08Q35.55 7.22 35.55 8.65L35.55 8.65L35.55 8.65Q35.55 10.08 34.87 11.22L34.87 11.22L34.87 11.22Q34.20 12.36 33.01 13.01L33.01 13.01L33.01 13.01Q31.82 13.66 30.35 13.66L30.35 13.66ZM30.35 12.42L30.35 12.42Q31.43 12.42 32.29 11.93L32.29 11.93L32.29 11.93Q33.15 11.44 33.65 10.58L33.65 10.58L33.65 10.58Q34.15 9.72 34.15 8.65L34.15 8.65L34.15 8.65Q34.15 7.59 33.65 6.73L33.65 6.73L33.65 6.73Q33.15 5.87 32.29 5.38L32.29 5.38L32.29 5.38Q31.43 4.89 30.35 4.89L30.35 4.89L30.35 4.89Q29.27 4.89 28.40 5.38L28.40 5.38L28.40 5.38Q27.52 5.87 27.03 6.73L27.03 6.73L27.03 6.73Q26.53 7.59 26.53 8.65L26.53 8.65L26.53 8.65Q26.53 9.72 27.03 10.58L27.03 10.58L27.03 10.58Q27.52 11.44 28.40 11.93L28.40 11.93L28.40 11.93Q29.27 12.42 30.35 12.42L30.35 12.42ZM39.63 13.55L39.63 4.97L36.27 4.97L36.27 3.75L44.38 3.75L44.38 4.97L41.02 4.97L41.02 13.55L39.63 13.55ZM45.91 13.55L45.91 3.75L47.31 3.75L47.31 12.33L52.61 12.33L52.61 13.55L45.91 13.55ZM56.73 6.06L56.73 6.06Q58.27 6.06 59.09 6.82L59.09 6.82L59.09 6.82Q59.91 7.57 59.91 9.07L59.91 9.07L59.91 13.55L58.63 13.55L58.63 12.57L58.63 12.57Q58.30 13.09 57.67 13.36L57.67 13.36L57.67 13.36Q57.05 13.64 56.20 13.64L56.20 13.64L56.20 13.64Q54.95 13.64 54.20 13.03L54.20 13.03L54.20 13.03Q53.45 12.43 53.45 11.45L53.45 11.45L53.45 11.45Q53.45 10.47 54.17 9.88L54.17 9.88L54.17 9.88Q54.88 9.28 56.43 9.28L56.43 9.28L58.56 9.28L58.56 9.02L58.56 9.02Q58.56 8.15 58.06 7.69L58.06 7.69L58.06 7.69Q57.55 7.22 56.57 7.22L56.57 7.22L56.57 7.22Q55.92 7.22 55.29 7.44L55.29 7.44L55.29 7.44Q54.66 7.66 54.22 8.02L54.22 8.02L53.66 7.01L53.66 7.01Q54.24 6.55 55.03 6.31L55.03 6.31L55.03 6.31Q55.83 6.06 56.73 6.06L56.73 6.06ZM56.42 12.60L56.42 12.60Q57.19 12.60 57.75 12.26L57.75 12.26L57.75 12.26Q58.31 11.91 58.56 11.28L58.56 11.28L58.56 10.25L56.49 10.25L56.49 10.25Q54.78 10.25 54.78 11.40L54.78 11.40L54.78 11.40Q54.78 11.96 55.22 12.28L55.22 12.28L55.22 12.28Q55.65 12.60 56.42 12.60L56.42 12.60ZM66.33 6.06L66.33 6.06Q67.41 6.06 68.26 6.54L68.26 6.54L68.26 6.54Q69.12 7.01 69.60 7.87L69.60 7.87L69.60 7.87Q70.08 8.72 70.08 9.84L70.08 9.84L70.08 9.84Q70.08 10.96 69.60 11.82L69.60 11.82L69.60 11.82Q69.12 12.68 68.26 13.16L68.26 13.16L68.26 13.16Q67.41 13.64 66.33 13.64L66.33 13.64L66.33 13.64Q65.51 13.64 64.82 13.31L64.82 13.31L64.82 13.31Q64.13 12.99 63.69 12.38L63.69 12.38L63.69 13.55L62.40 13.55L62.40 3.16L63.74 3.16L63.74 7.25L63.74 7.25Q64.19 6.66 64.86 6.36L64.86 6.36L64.86 6.36Q65.53 6.06 66.33 6.06L66.33 6.06ZM66.22 12.46L66.22 12.46Q66.93 12.46 67.50 12.13L67.50 12.13L67.50 12.13Q68.07 11.80 68.40 11.21L68.40 11.21L68.40 11.21Q68.73 10.61 68.73 9.84L68.73 9.84L68.73 9.84Q68.73 9.07 68.40 8.48L68.40 8.48L68.40 8.48Q68.07 7.88 67.50 7.56L67.50 7.56L67.50 7.56Q66.93 7.24 66.22 7.24L66.22 7.24L66.22 7.24Q65.52 7.24 64.95 7.56L64.95 7.56L64.95 7.56Q64.37 7.88 64.05 8.48L64.05 8.48L64.05 8.48Q63.73 9.07 63.73 9.84L63.73 9.84L63.73 9.84Q63.73 10.61 64.05 11.21L64.05 11.21L64.05 11.21Q64.37 11.80 64.95 12.13L64.95 12.13L64.95 12.13Q65.52 12.46 66.22 12.46L66.22 12.46Z"></path></g><!----><g data-v-423bf9ae="" id="089e8350-5d3a-439f-9da4-076fc6adc320" transform="matrix(1.0344947335521504,0,0,1.0344947335521504,-6.483061942289702,-5.187823747871015)" stroke="none" fill="white"><switch><g><path d="M93.231 23.886a2.918 2.918 0 0 0-2.864 2.357l-4.073-.137a3.816 3.816 0 0 0-3.746-3.107c-.238 0-.47.028-.696.07l-1.57-4.711a2.151 2.151 0 0 0 .863-1.72 2.161 2.161 0 0 0-2.158-2.166 2.17 2.17 0 0 0-2.166 2.166c0 1.191.972 2.161 2.166 2.161.113 0 .223-.017.331-.033l1.548 4.64c-1.258.624-2.132 1.907-2.132 3.406 0 1.273.631 2.394 1.59 3.087l-4.569 6.432a3.772 3.772 0 0 0-1.6-.362c-1.951 0-3.544 1.479-3.767 3.376l-8.704-.873a4.328 4.328 0 0 0-4.324-4.286 4.32 4.32 0 0 0-.849.086l-2.448-8.574c1.504-.819 2.534-2.394 2.534-4.229a4.81 4.81 0 0 0-.348-1.779l2.509-1.253a4.073 4.073 0 0 0 7.007-2.819c0-.262-.03-.516-.077-.764l5.464-2.276c.396.53 1.021.878 1.733.878a2.16 2.16 0 0 0 2.156-2.166c0-1.193-.961-2.16-2.156-2.16a2.164 2.164 0 0 0-2.168 2.16c0 .111.017.218.033.325l-5.397 2.249a4.067 4.067 0 0 0-3.665-2.318c-.604 0-1.172.14-1.688.376L58.53 9.33a2.157 2.157 0 0 0-1.291-3.885 2.165 2.165 0 0 0-2.168 2.161c0 1.197.971 2.163 2.168 2.163.108 0 .213-.017.317-.032l1.562 2.747c-.911.747-1.505 1.866-1.505 3.135 0 .714.2 1.375.523 1.958l-2.371 1.184a4.828 4.828 0 0 0-4.002-2.122 4.836 4.836 0 0 0-4.832 4.831 4.835 4.835 0 0 0 4.832 4.835c.463 0 .902-.085 1.326-.207l2.432 8.515a4.32 4.32 0 0 0-2.483 3.902 4.31 4.31 0 0 0 1.307 3.091l-3.886 4.979a4.909 4.909 0 0 0-2.887-.945 4.967 4.967 0 0 0-4.865 3.969l-6.739-1.152c.005-.093.028-.18.028-.274a4.84 4.84 0 0 0-4.833-4.837c-.853 0-1.642.239-2.337.626l-5.299-8.709a4.069 4.069 0 0 0 1.781-3.367c0-.167-.03-.327-.049-.489l2.346-.567a2.538 2.538 0 0 0 2.283 1.441 2.546 2.546 0 0 0 2.543-2.544 2.546 2.546 0 0 0-2.543-2.544 2.546 2.546 0 0 0-2.545 2.544c0 .03.008.058.009.087l-2.34.564a4.069 4.069 0 0 0-1.403-1.786l2.051-4.89c.353.185.748.299 1.173.299a2.545 2.545 0 0 0 2.549-2.543 2.546 2.546 0 0 0-5.091 0c0 .583.204 1.113.533 1.541l-2.138 5.097a4.042 4.042 0 0 0-1.446-.276 4.053 4.053 0 0 0-4.044 3.807l-5.37-1.047a2.543 2.543 0 1 0-2.542 2.581c1.054 0 1.959-.64 2.345-1.553l5.623 1.097a4.071 4.071 0 0 0 3.987 3.253c.474 0 .921-.097 1.344-.246l5.386 8.853c-1 .886-1.643 2.166-1.643 3.607 0 1.335.542 2.543 1.419 3.418l-1.614 2.419a5.696 5.696 0 0 0-3.241-1.006 5.726 5.726 0 0 0-5.721 5.73 5.719 5.719 0 0 0 8.131 5.18l2.747 5.043a6.866 6.866 0 0 0-.952 10.557l-4.545 4.716a3.662 3.662 0 0 0-2.455-.952 3.685 3.685 0 0 0-3.688 3.684 3.69 3.69 0 0 0 3.688 3.691 3.69 3.69 0 0 0 3.689-3.691c0-.708-.209-1.362-.556-1.924l4.669-4.85a6.83 6.83 0 0 0 4.028 1.314c3.171 0 5.836-2.161 6.624-5.084l5.852.792a5.847 5.847 0 0 0 5.834 5.56 5.816 5.816 0 0 0 3.572-1.223l2.578 4.399a3.651 3.651 0 0 0-1.314 2.796 3.696 3.696 0 0 0 3.69 3.693 3.692 3.692 0 0 0 3.69-3.693 3.682 3.682 0 0 0-5.187-3.36l-2.675-4.563a5.813 5.813 0 0 0 1.498-3.897 5.834 5.834 0 0 0-1.967-4.369l1.828-2.926c.672.27 1.404.422 2.172.422a5.865 5.865 0 0 0 5.609-4.164l7.815-1.117a3.54 3.54 0 0 0 2.863 1.463c.776 0 1.488-.254 2.073-.675l3.323 2.791c-.191.357-.31.759-.31 1.192a2.546 2.546 0 0 0 2.544 2.549 2.55 2.55 0 0 0 2.543-2.549 2.55 2.55 0 0 0-2.543-2.545c-.592 0-1.129.21-1.561.549l-3.246-2.726a3.533 3.533 0 0 0 .737-2.149 3.554 3.554 0 0 0-1.964-3.17l.628-2.202c.105.012.209.032.318.032a3.048 3.048 0 1 0 .495-6.056l-1.368-8.219c1.126-.663 1.891-1.874 1.891-3.273a3.796 3.796 0 0 0-1.342-2.886l4.63-6.515a3.78 3.78 0 0 0 1.289.239c.74 0 1.425-.22 2.011-.585l1.562 1.511a2.159 2.159 0 0 0 1.77 3.399 2.167 2.167 0 0 0 2.168-2.165c0-1.195-.974-2.16-2.168-2.16-.352 0-.678.091-.971.239l-1.554-1.502c.54-.596.887-1.36.964-2.208l4.027.135a2.913 2.913 0 0 0 2.874 2.444 2.93 2.93 0 0 0 2.93-2.924 2.926 2.926 0 0 0-2.926-2.925zM53.282 71.94a5.814 5.814 0 0 0-3.047-.862c-2.969 0-5.42 2.221-5.794 5.094l-5.693-.77a6.872 6.872 0 0 0-6.823-7.637 6.828 6.828 0 0 0-2.966.681l-2.752-5.048a5.696 5.696 0 0 0 2.409-4.654 5.717 5.717 0 0 0-1.677-4.054l1.629-2.442c.75.479 1.637.766 2.594.766 2.208 0 4.056-1.496 4.631-3.524l6.819 1.166a4.957 4.957 0 0 0 4.959 4.899c.738 0 1.432-.173 2.062-.463l4.319 5.01a5.83 5.83 0 0 0-1.682 4.102 5.85 5.85 0 0 0 2.75 4.958l-1.738 2.778zm23.107-20.651a3.054 3.054 0 0 0-2.488 2.998 3.04 3.04 0 0 0 1.729 2.737l-.614 2.15a3.534 3.534 0 0 0-.605-.062 3.562 3.562 0 0 0-3.559 3.564c0 .393.078.763.195 1.115l-7.096 1.015c.021-.199.031-.4.031-.604 0-3.232-2.627-5.85-5.86-5.85a5.811 5.811 0 0 0-3.367 1.071l-4.211-4.883c1.197-.905 1.984-2.326 1.984-3.943a4.925 4.925 0 0 0-1.293-3.313l3.952-5.054a4.272 4.272 0 0 0 2.174.609 4.326 4.326 0 0 0 4.202-3.333l8.843.886a3.805 3.805 0 0 0 3.75 3.207c.323 0 .633-.052.933-.128l1.3 7.818z"></path></g></switch></g><!----></svg>