<svg data-v-423bf9ae="" xmlns="http://www.w3.org/2000/svg" viewBox="0 0 397.20001220703125 60" class="font"><!----><!----><!----><g data-v-423bf9ae="" id="abd7f6cd-8b10-473a-bb28-58a47def8e8e" fill="black" transform="matrix(5.714285714285714,0,0,5.714285714285714,-3.2571387035506234,-18.057143109185354)"><path d="M4.33 13.66L4.33 13.66Q3.22 13.66 2.19 13.32L2.19 13.32L2.19 13.32Q1.16 12.98 0.57 12.43L0.57 12.43L1.09 11.34L1.09 11.34Q1.65 11.84 2.53 12.16L2.53 12.16L2.53 12.16Q3.40 12.47 4.33 12.47L4.33 12.47L4.33 12.47Q5.54 12.47 6.15 12.06L6.15 12.06L6.15 12.06Q6.75 11.65 6.75 10.96L6.75 10.96L6.75 10.96Q6.75 10.46 6.42 10.14L6.42 10.14L6.42 10.14Q6.09 9.83 5.61 9.66L5.61 9.66L5.61 9.66Q5.12 9.49 4.24 9.28L4.24 9.28L4.24 9.28Q3.14 9.02 2.46 8.75L2.46 8.75L2.46 8.75Q1.78 8.48 1.29 7.93L1.29 7.93L1.29 7.93Q0.81 7.38 0.81 6.44L0.81 6.44L0.81 6.44Q0.81 5.66 1.23 5.03L1.23 5.03L1.23 5.03Q1.64 4.40 2.48 4.02L2.48 4.02L2.48 4.02Q3.32 3.64 4.56 3.64L4.56 3.64L4.56 3.64Q5.43 3.64 6.27 3.86L6.27 3.86L6.27 3.86Q7.11 4.09 7.71 4.51L7.71 4.51L7.25 5.63L7.25 5.63Q6.64 5.24 5.94 5.03L5.94 5.03L5.94 5.03Q5.24 4.83 4.56 4.83L4.56 4.83L4.56 4.83Q3.37 4.83 2.78 5.26L2.78 5.26L2.78 5.26Q2.18 5.70 2.18 6.38L2.18 6.38L2.18 6.38Q2.18 6.89 2.52 7.20L2.52 7.20L2.52 7.20Q2.86 7.52 3.35 7.69L3.35 7.69L3.35 7.69Q3.85 7.87 4.70 8.06L4.70 8.06L4.70 8.06Q5.81 8.33 6.48 8.60L6.48 8.60L6.48 8.60Q7.15 8.86 7.64 9.41L7.64 9.41L7.64 9.41Q8.12 9.95 8.12 10.88L8.12 10.88L8.12 10.88Q8.12 11.65 7.70 12.29L7.70 12.29L7.70 12.29Q7.28 12.92 6.43 13.29L6.43 13.29L6.43 13.29Q5.57 13.66 4.33 13.66L4.33 13.66ZM22.68 3.75L24.01 3.75L20.73 13.55L19.26 13.55L16.59 5.73L13.92 13.55L12.42 13.55L9.14 3.75L10.58 3.75L13.23 11.72L15.99 3.75L17.28 3.75L19.98 11.76L22.68 3.75ZM30.35 13.66L30.35 13.66Q28.87 13.66 27.68 13.01L27.68 13.01L27.68 13.01Q26.49 12.36 25.81 11.21L25.81 11.21L25.81 11.21Q25.13 10.07 25.13 8.65L25.13 8.65L25.13 8.65Q25.13 7.24 25.81 6.09L25.81 6.09L25.81 6.09Q26.49 4.94 27.68 4.29L27.68 4.29L27.68 4.29Q28.87 3.64 30.35 3.64L30.35 3.64L30.35 3.64Q31.82 3.64 33.01 4.29L33.01 4.29L33.01 4.29Q34.20 4.94 34.87 6.08L34.87 6.08L34.87 6.08Q35.55 7.22 35.55 8.65L35.55 8.65L35.55 8.65Q35.55 10.08 34.87 11.22L34.87 11.22L34.87 11.22Q34.20 12.36 33.01 13.01L33.01 13.01L33.01 13.01Q31.82 13.66 30.35 13.66L30.35 13.66ZM30.35 12.42L30.35 12.42Q31.43 12.42 32.29 11.93L32.29 11.93L32.29 11.93Q33.15 11.44 33.65 10.58L33.65 10.58L33.65 10.58Q34.15 9.72 34.15 8.65L34.15 8.65L34.15 8.65Q34.15 7.59 33.65 6.73L33.65 6.73L33.65 6.73Q33.15 5.87 32.29 5.38L32.29 5.38L32.29 5.38Q31.43 4.89 30.35 4.89L30.35 4.89L30.35 4.89Q29.27 4.89 28.40 5.38L28.40 5.38L28.40 5.38Q27.52 5.87 27.03 6.73L27.03 6.73L27.03 6.73Q26.53 7.59 26.53 8.65L26.53 8.65L26.53 8.65Q26.53 9.72 27.03 10.58L27.03 10.58L27.03 10.58Q27.52 11.44 28.40 11.93L28.40 11.93L28.40 11.93Q29.27 12.42 30.35 12.42L30.35 12.42ZM39.63 13.55L39.63 4.97L36.27 4.97L36.27 3.75L44.38 3.75L44.38 4.97L41.02 4.97L41.02 13.55L39.63 13.55ZM45.91 13.55L45.91 3.75L47.31 3.75L47.31 12.33L52.61 12.33L52.61 13.55L45.91 13.55ZM56.73 6.06L56.73 6.06Q58.27 6.06 59.09 6.82L59.09 6.82L59.09 6.82Q59.91 7.57 59.91 9.07L59.91 9.07L59.91 13.55L58.63 13.55L58.63 12.57L58.63 12.57Q58.30 13.09 57.67 13.36L57.67 13.36L57.67 13.36Q57.05 13.64 56.20 13.64L56.20 13.64L56.20 13.64Q54.95 13.64 54.20 13.03L54.20 13.03L54.20 13.03Q53.45 12.43 53.45 11.45L53.45 11.45L53.45 11.45Q53.45 10.47 54.17 9.88L54.17 9.88L54.17 9.88Q54.88 9.28 56.43 9.28L56.43 9.28L58.56 9.28L58.56 9.02L58.56 9.02Q58.56 8.15 58.06 7.69L58.06 7.69L58.06 7.69Q57.55 7.22 56.57 7.22L56.57 7.22L56.57 7.22Q55.92 7.22 55.29 7.44L55.29 7.44L55.29 7.44Q54.66 7.66 54.22 8.02L54.22 8.02L53.66 7.01L53.66 7.01Q54.24 6.55 55.03 6.31L55.03 6.31L55.03 6.31Q55.83 6.06 56.73 6.06L56.73 6.06ZM56.42 12.60L56.42 12.60Q57.19 12.60 57.75 12.26L57.75 12.26L57.75 12.26Q58.31 11.91 58.56 11.28L58.56 11.28L58.56 10.25L56.49 10.25L56.49 10.25Q54.78 10.25 54.78 11.40L54.78 11.40L54.78 11.40Q54.78 11.96 55.22 12.28L55.22 12.28L55.22 12.28Q55.65 12.60 56.42 12.60L56.42 12.60ZM66.33 6.06L66.33 6.06Q67.41 6.06 68.26 6.54L68.26 6.54L68.26 6.54Q69.12 7.01 69.60 7.87L69.60 7.87L69.60 7.87Q70.08 8.72 70.08 9.84L70.08 9.84L70.08 9.84Q70.08 10.96 69.60 11.82L69.60 11.82L69.60 11.82Q69.12 12.68 68.26 13.16L68.26 13.16L68.26 13.16Q67.41 13.64 66.33 13.64L66.33 13.64L66.33 13.64Q65.51 13.64 64.82 13.31L64.82 13.31L64.82 13.31Q64.13 12.99 63.69 12.38L63.69 12.38L63.69 13.55L62.40 13.55L62.40 3.16L63.74 3.16L63.74 7.25L63.74 7.25Q64.19 6.66 64.86 6.36L64.86 6.36L64.86 6.36Q65.53 6.06 66.33 6.06L66.33 6.06ZM66.22 12.46L66.22 12.46Q66.93 12.46 67.50 12.13L67.50 12.13L67.50 12.13Q68.07 11.80 68.40 11.21L68.40 11.21L68.40 11.21Q68.73 10.61 68.73 9.84L68.73 9.84L68.73 9.84Q68.73 9.07 68.40 8.48L68.40 8.48L68.40 8.48Q68.07 7.88 67.50 7.56L67.50 7.56L67.50 7.56Q66.93 7.24 66.22 7.24L66.22 7.24L66.22 7.24Q65.52 7.24 64.95 7.56L64.95 7.56L64.95 7.56Q64.37 7.88 64.05 8.48L64.05 8.48L64.05 8.48Q63.73 9.07 63.73 9.84L63.73 9.84L63.73 9.84Q63.73 10.61 64.05 11.21L64.05 11.21L64.05 11.21Q64.37 11.80 64.95 12.13L64.95 12.13L64.95 12.13Q65.52 12.46 66.22 12.46L66.22 12.46Z"></path></g><!----><!----></svg>